<svg xmlns="http://www.w3.org/2000/svg" width="512.599" height="512.599" viewBox="0 0 512.599 512.599">
  <g id="imdb" transform="translate(0 0)">
    <g id="Сгруппировать_4" data-name="Сгруппировать 4">
      <path id="Контур_1" data-name="Контур 1" d="M457.21,512.6H55.389A55.39,55.39,0,0,1,0,457.21V55.389A55.39,55.39,0,0,1,55.389,0H457.21A55.39,55.39,0,0,1,512.6,55.389v401.82A55.39,55.39,0,0,1,457.21,512.6Z" fill="#fc0"/>
      <g id="Сгруппировать_3" data-name="Сгруппировать 3">
        <g id="Сгруппировать_2" data-name="Сгруппировать 2" transform="translate(-91.629 -37.052)">
          <path id="Контур_3" data-name="Контур 3" d="M124.629,204.119h45.936V381.345H124.629Z" transform="translate(0 0.001)" fill-rule="evenodd"/>
          <path id="Контур_4" data-name="Контур 4" d="M243.489,204.119l-10.645,82.816-6.528-45.014c-1.973-14.428-3.775-27.062-5.579-37.8H161.149V381.345h40.27l.17-117,16.917,117h28.678L263.323,261.77l.088,119.575h40.176V204.119Z" transform="translate(25.13 0.001)" fill-rule="evenodd"/>
          <path id="Контур_5" data-name="Контур 5" d="M310.995,236.08a7.284,7.284,0,0,1,3.523,4.983c.512,2.233.771,7.384.771,15.377v68.629c0,11.862-.771,19.077-2.321,21.745s-5.576,3.943-12.193,3.943v-116.3c4.98,0,8.41.511,10.22,1.627Zm-.434,145.265q16.487,0,24.734-1.8a31.711,31.711,0,0,0,13.735-6.356,23.9,23.9,0,0,0,7.816-12.541c1.541-5.329,2.4-15.973,2.4-31.87v-62.2c0-16.753-.689-28-1.627-33.757a31.663,31.663,0,0,0-7.73-15.543c-4.035-4.649-10.046-7.995-17.86-10.051s-20.693-3.1-42.929-3.1H254.836V381.346h55.725Z" transform="translate(89.598 0.001)" fill-rule="evenodd"/>
          <path id="Контур_6" data-name="Контур 6" d="M385.8,338.395c0,8.5-.437,14-1.295,16.231s-4.551,3.346-7.387,3.346c-2.741,0-4.551-1.021-5.491-3.251-.854-2.151-1.374-7.134-1.374-14.952V292.952c0-8.081.425-13.064,1.205-15.126.858-1.973,2.659-3,5.318-3,2.836,0,6.607,1.209,7.564,3.439.939,2.316,1.459,7.215,1.459,14.692v45.441ZM325.942,204.12V381.346h41.391l2.917-11.256a38.263,38.263,0,0,0,12.359,10.225c4.561,2.23,11.253,3.346,16.485,3.346,7.218,0,13.566-1.887,18.806-5.755,5.326-3.775,8.68-8.333,10.054-13.49,1.46-5.237,2.147-13.139,2.147-23.71V290.977c0-10.736-.177-17.7-.689-20.963a24.076,24.076,0,0,0-4.209-10.06,23.062,23.062,0,0,0-10.223-7.986,41.018,41.018,0,0,0-15.889-2.836c-5.231,0-12.016,1.043-16.567,3.191a37.035,37.035,0,0,0-12.276,9.447V204.118H325.942Z" transform="translate(138.528 0)" fill-rule="evenodd"/>
        </g>
      </g>
    </g>
  </g>
</svg>
